# xmcd
#
# Track frame offsets:
#	150
#	12315
#	24131
#	38079
#	49582
#	62605
#	74037
#	85072
#	95764
#	108472
#	119701
#	131590
#	144070
#	154950
#	167683
#	178665
#	192781
#	203639
#	216439
#	228647
#	239799
#	250957
#	262679
#	275547
#	288598
#	299396
#	310572
#
# Disc length: 4329 seconds
#
# Revision: 1
# Processed by: cddbd v1.5.1PL0 Copyright (c) Steve Scherf et al.
# Submitted via: audiograbber 1.82.02
#
DISCID=9010e71b
DTITLE=Various Artist - The Dawn Of Doo-Wop, Vol 4, Doo-Wop Dancin'
DYEAR=1900
DGENRE=Doo-Wop
TTITLE0=Cardinals - Please Don't Leave Me
TTITLE1=Cardinals - Pretty Baby Blues
TTITLE2=Clovers - Don't You Know I Love You
TTITLE3=Clovers - Fool Fool Fool
TTITLE4=Dominoes - Chicken Blues
TTITLE5=Dominoes - Sixty Minute Man
TTITLE6=Dominoes - That's What You're Doing To Me
TTITLE7=Dominoes - Hucklebuck With Jimmy
TTITLE8=Five Keys - Old MacDonald
TTITLE9=Larks - How Long Must I Wait For You
TTITLE10=Larks - I Ain't Fattening Frogs For Snakes
TTITLE11=Larks - Hey Little Girl
TTITLE12=Larks - Ooh, It Feels So Good
TTITLE13=Red Caps - Red Caps
TTITLE14=Rivals - Rival Blues
TTITLE15=Robins - If It's So
TTITLE16=Robins - Livin' OK
TTITLE17=Robins - Rockin'
TTITLE18=Robins - Turkey Hop
TTITLE19=Royales - Too Much Of A Little Bit
TTITLE20=Sultans - Lemon Squeezing Daddy
TTITLE21=Swallows - It Ain't The Meat
TTITLE22=Swallows - Roll Roll Pretty Baby
TTITLE23=Treniers - Buzz Buzz Buzz
TTITLE24=Treniers - Go Go Go
TTITLE25=Sultans - Don't Be Angry
TTITLE26=Sultans - You Captured My Heart
EXTD=
EXTT0=
EXTT1=
EXTT2=
EXTT3=
EXTT4=
EXTT5=
EXTT6=
EXTT7=
EXTT8=
EXTT9=
EXTT10=
EXTT11=
EXTT12=
EXTT13=
EXTT14=
EXTT15=
EXTT16=
EXTT17=
EXTT18=
EXTT19=
EXTT20=
EXTT21=
EXTT22=
EXTT23=
EXTT24=
EXTT25=
EXTT26=
PLAYORDER=
